:FULLY-SPECIFIED
:FORCE-ALL-JOINTS-BE-3DOF
:DEGREES
146
root 8.62901 15.9818 -16.3341 6.32324 8.9395 3.24294
lfemur 27.0425 5.19011 -17.6214
ltibia 1.73768 0 0
lfoot 8.14409 -0.667289 0
ltoes -14.7025 0 0
rfemur -40.7926 2.11825 15.8693
rtibia 39.305 0 0
rfoot -8.07317 -3.71478 0
rtoes -16.9726 0 0
lowerback -6.50824 -3.50081 -3.81972
upperback -1.33661 -4.4635 2.34441
thorax 2.73604 -2.26741 4.16613
lowerneck -19.5801 -5.86548 -13.7139
upperneck 17.7667 -6.913 12.7324
head 9.81169 -2.79065 5.77603
lclavicle -7.16812e-15 -2.36924e-14 0
lhumerus -35.6223 0.255737 89.8108
lradius 18.3081 0 0
lwrist -10.4471 0 0
lhand -10.6064 -22.7537 0
lfingers 7.12502 0 0
lthumb 15.4 6.65812 0
rclavicle -7.16812e-15 -2.36924e-14 0
rhumerus -48.3342 3.99048 -81.4772
rradius 28.5328 0 0
rwrist -13.8593 0 0
rhand -27.7018 -22.6969 0
rfingers 7.12502 0 0
rthumb -1.09791 -52.6729 0
147
root 8.60329 15.9968 -16.1778 6.36001 8.97568 3.05379
lfemur 26.5346 5.38463 -17.2451
ltibia 2.88539 0 0
lfoot 8.71963 -0.426596 0
ltoes -14.9058 0 0
rfemur -40.418 1.83378 16.4444
rtibia 39.5522 0 0
rfoot -7.62539 -3.30615 0
rtoes -16.8354 0 0
lowerback -6.40696 -3.43116 -3.62477
upperback -1.34217 -4.38915 2.37687
thorax 2.65578 -2.22673 4.10249
lowerneck -19.5571 -5.90785 -13.7477
upperneck 17.5859 -6.97288 12.834
head 9.75898 -2.81042 5.8047
lclavicle -6.97427e-15 -2.42279e-14 0
lhumerus -35.9638 0.85875 89.6683
lradius 17.8074 0 0
lwrist -10.7826 0 0
lhand -10.4863 -22.6639 0
lfingers 7.12502 0 0
lthumb 15.5155 6.73644 0
rclavicle -6.97427e-15 -2.42279e-14 0
rhumerus -48.2772 4.04477 -81.4432
rradius 28.5401 0 0
rwrist -13.7843 0 0
rhand -27.6306 -22.8072 0
rfingers 7.12502 0 0
rthumb -1.02909 -52.7841 0
148
root 8.57898 16.0141 -16.0262 6.40451 9.00999 2.86884
lfemur 25.842 5.56626 -16.9228
ltibia 4.225 0 0
lfoot 9.10364 -0.156244 0
ltoes -15.0657 0 0
rfemur -40.0067 1.60889 16.9634
rtibia 39.6535 0 0
rfoot -7.3143 -2.94987 0
rtoes -16.7063 0 0
lowerback -6.31326 -3.35846 -3.44245
upperback -1.34916 -4.30861 2.41203
thorax 2.57955 -2.18338 4.04829
lowerneck -19.5297 -5.95316 -13.784
upperneck 17.4145 -7.03664 12.9338
head 9.7099 -2.83277 5.83286
lclavicle -6.78353e-15 -2.46493e-14 0
lhumerus -36.3306 1.23595 89.626
lradius 17.4853 0 0
lwrist -10.9178 0 0
lhand -10.332 -22.575 0
lfingers 7.12502 0 0
lthumb 15.6639 6.8109 0
rclavicle -6.78353e-15 -2.46493e-14 0
rhumerus -48.1996 4.13714 -81.4114
rradius 28.6025 0 0
rwrist -13.7674 0 0
rhand -27.5896 -22.9098 0
rfingers 7.12502 0 0
rthumb -0.989513 -52.8873 0
149
root 8.55544 16.0349 -15.8787 6.45796 9.04206 2.67933
lfemur 24.93 5.74296 -16.6418
ltibia 5.84987 0 0
lfoot 9.30798 0.163554 0
ltoes -15.1915 0 0
rfemur -39.5442 1.43352 17.4486
rtibia 39.6103 0 0
rfoot -7.12742 -2.63015 0
rtoes -16.5766 0 0
lowerback -6.22335 -3.28065 -3.26378
upperback -1.35914 -4.21984 2.45187
thorax 2.5028 -2.13621 4.00102
lowerneck -19.4951 -6.00266 -13.8245
upperneck 17.2456 -7.10623 13.0361
head 9.66209 -2.85838 5.86188
lclavicle -6.56917e-15 -2.50091e-14 0
lhumerus -36.7335 1.37974 89.6852
lradius 17.3422 0 0
lwrist -10.8458 0 0
lhand -10.1255 -22.4803 0
lfingers 7.12502 0 0
lthumb 15.8625 6.88649 0
rclavicle -6.56917e-15 -2.50091e-14 0
rhumerus -48.1049 4.28305 -81.389
rradius 28.721 0 0
rwrist -13.8108 0 0
rhand -27.5743 -23.0079 0
rfingers 7.12502 0 0
rthumb -0.974709 -52.9858 0
150
root 8.53195 16.0602 -15.7342 6.52025 9.07089 2.4768
lfemur 23.7864 5.92301 -16.385
ltibia 7.81989 0 0
lfoot 9.36441 0.547304 0
ltoes -15.2953 0 0
rfemur -39.0206 1.29171 17.9274
rtibia 39.4418 0 0
rfoot -7.038 -2.32638 0
rtoes -16.4377 0 0
lowerback -6.13292 -3.19591 -3.07907
upperback -1.37308 -4.12132 2.49779
thorax 2.42118 -2.08428 3.95715
lowerneck -19.4518 -6.05711 -13.87
upperneck 17.0717 -7.18294 13.145
head 9.61308 -2.88754 5.89298
lclavicle -6.30243e-15 -2.53661e-14 0
lhumerus -37.1782 1.31028 89.8343
lradius 17.3578 0 0
lwrist -10.5829 0 0
lhand -9.85642 -22.3742 0
lfingers 7.12502 0 0
lthumb 16.1213 6.96785 0
rclavicle -6.30243e-15 -2.53661e-14 0
rhumerus -47.9972 4.4916 -81.3817
rradius 28.8913 0 0
rwrist -13.9098 0 0
rhand -27.5772 -23.1057 0
rfingers 7.12502 0 0
rthumb -0.977555 -53.0838 0
151
root 8.50859 16.0895 -15.5927 6.59028 9.0961 2.26291
lfemur 22.432 6.10532 -16.1517
ltibia 10.0972 0 0
lfoot 9.28421 0.988188 0
ltoes -15.3774 0 0
rfemur -38.4412 1.18122 18.3993
rtibia 39.1594 0 0
rfoot -7.03862 -2.03795 0
rtoes -16.2912 0 0
lowerback -6.04226 -3.10474 -2.88932
upperback -1.39035 -4.01375 2.54904
thorax 2.33559 -2.02795 3.91645
lowerneck -19.4007 -6.11597 -13.9199
upperneck 16.8938 -7.266 13.2593
head 9.56318 -2.91987 5.92585
lclavicle -5.98639e-15 -2.57157e-14 0
lhumerus -37.6593 1.04731 90.0644
lradius 17.5182 0 0
lwrist -10.1461 0 0
lhand -9.53273 -22.2585 0
lfingers 7.12502 0 0
lthumb 16.4327 7.05391 0
rclavicle -5.98639e-15 -2.57157e-14 0
rhumerus -47.8768 4.75598 -81.3877
rradius 29.1095 0 0
rwrist -14.0596 0 0
rhand -27.5974 -23.2034 0
rfingers 7.12502 0 0
rthumb -0.997029 -53.1817 0
152
root 8.48539 16.1224 -15.4538 6.66696 9.11734 2.03929
lfemur 20.8878 6.28878 -15.9411
ltibia 12.6439 0 0
lfoot 9.07866 1.47939 0
ltoes -15.4381 0 0
rfemur -37.8114 1.0998 18.8638
rtibia 38.7747 0 0
rfoot -7.12186 -1.76429 0
rtoes -16.1385 0 0
lowerback -5.95167 -3.00766 -2.69555
upperback -1.41029 -3.8978 2.60489
thorax 2.24692 -1.96754 3.87866
lowerneck -19.343 -6.17872 -13.9736
upperneck 16.713 -7.35466 13.3783
head 9.51271 -2.95501 5.96016
lclavicle -5.62412e-15 -2.60531e-14 0
lhumerus -38.1717 0.610613 90.3665
lradius 17.8095 0 0
lwrist -9.55226 0 0
lhand -9.16251 -22.135 0
lfingers 7.12502 0 0
lthumb 16.7888 7.14358 0
rclavicle -5.62412e-15 -2.60531e-14 0
rhumerus -47.7435 5.06939 -81.405
rradius 29.3719 0 0
rwrist -14.2553 0 0
rhand -27.6337 -23.301 0
rfingers 7.12502 0 0
rthumb -1.03211 -53.2793 0
153
root 8.46243 16.1582 -15.3174 6.74917 9.13424 1.80759
lfemur 19.1744 6.4723 -15.7526
ltibia 15.4222 0 0
lfoot 8.75903 2.01409 0
ltoes -15.478 0 0
rfemur -37.1366 1.04518 19.3205
rtibia 38.2991 0 0
rfoot -7.28028 -1.50482 0
rtoes -15.9809 0 0
lowerback -5.86143 -2.90515 -2.49876
upperback -1.43227 -3.77418 2.6646
thorax 2.15607 -1.90341 3.84355
lowerneck -19.2799 -6.24483 -14.0303
upperneck 16.5302 -7.44816 13.5011
head 9.46198 -2.9926 5.99562
lclavicle -5.21871e-15 -2.63738e-14 0
lhumerus -38.7101 0.0199412 90.7318
lradius 18.2177 0 0
lwrist -8.81814 0 0
lhand -8.7538 -22.0054 0
lfingers 7.12502 0 0
lthumb 17.1819 7.2358 0
rclavicle -5.21871e-15 -2.63738e-14 0
rhumerus -47.5974 5.42501 -81.4317
rradius 29.6746 0 0
rwrist -14.4922 0 0
rhand -27.6851 -23.3987 0
rfingers 7.12502 0 0
rthumb -1.08178 -53.377 0
154
root 8.43975 16.1966 -15.1832 6.83583 9.14644 1.56947
lfemur 17.3129 6.65476 -15.5853
ltibia 18.3941 0 0
lfoot 8.3366 2.58547 0
ltoes -15.4973 0 0
rfemur -36.4222 1.01514 19.7691
rtibia 37.744 0 0
rfoot -7.50647 -1.25893 0
rtoes -15.8201 0 0
lowerback -5.77184 -2.79775 -2.29998
upperback -1.45562 -3.64355 2.72745
thorax 2.06394 -1.8359 3.81086
lowerneck -19.2124 -6.31377 -14.0894
upperneck 16.3464 -7.54574 13.6267
head 9.4113 -3.03225 6.03189
lclavicle -4.77324e-15 -2.66731e-14 0
lhumerus -39.2692 -0.704941 91.1514
lradius 18.729 0 0
lwrist -7.96063 0 0
lhand -8.31465 -21.8715 0
lfingers 7.12502 0 0
lthumb 17.6043 7.32949 0
rclavicle -4.77324e-15 -2.66731e-14 0
rhumerus -47.4387 5.81603 -81.4658
rradius 30.0139 0 0
rwrist -14.7652 0 0
rhand -27.7506 -23.4967 0
rfingers 7.12502 0 0
rthumb -1.145 -53.4748 0
155
root 8.41742 16.2371 -15.0511 6.92584 9.15358 1.32656
lfemur 15.324 6.83507 -15.4385
ltibia 21.5219 0 0
lfoot 7.82265 3.18672 0
ltoes -15.4963 0 0
rfemur -35.6735 1.0074 20.209
rtibia 37.121 0 0
rfoot -7.79299 -1.02605 0
rtoes -15.6574 0 0
lowerback -5.68318 -2.68594 -2.10022
upperback -1.47972 -3.50662 2.79269
thorax 1.97143 -1.76536 3.78036
lowerneck -19.1418 -6.38502 -14.1501
upperneck 16.1626 -7.64664 13.7542
head 9.361 -3.07361 6.06866
lclavicle -4.29078e-15 -2.69464e-14 0
lhumerus -39.8438 -1.54427 91.6165
lradius 19.3295 0 0
lwrist -6.99657 0 0
lhand -7.85312 -21.7352 0
lfingers 7.12502 0 0
lthumb 18.0482 7.42357 0
rclavicle -4.29078e-15 -2.69464e-14 0
rhumerus -47.2674 6.23566 -81.5055
rradius 30.3858 0 0
rwrist -15.0697 0 0
rhand -27.829 -23.595 0
rfingers 7.12502 0 0
rthumb -1.22077 -53.5729 0
156
root 8.39549 16.2791 -14.9209 7.01809 9.1553 1.08053
lfemur 13.2286 7.01212 -15.3116
ltibia 24.7676 0 0
lfoot 7.22846 3.81102 0
ltoes -15.4755 0 0
rfemur -34.896 1.01973 20.6399
rtibia 36.4416 0 0
rfoot -8.13243 -0.805587 0
rtoes -15.4943 0 0
lowerback -5.59575 -2.57024 -1.90049
upperback -1.5039 -3.36406 2.85959
thorax 1.87944 -1.69212 3.7518
lowerneck -19.069 -6.45803 -14.2118
upperneck 15.9799 -7.7501 13.8827
head 9.31137 -3.1163 6.10563
lclavicle -3.77442e-15 -2.7189e-14 0
lhumerus -40.4286 -2.47829 92.118
lradius 20.0052 0 0
lwrist -5.94282 0 0
lhand -7.37724 -21.5981 0
lfingers 7.12502 0 0
lthumb 18.506 7.51696 0
rclavicle -3.77442e-15 -2.7189e-14 0
rhumerus -47.0834 6.67708 -81.5487
rradius 30.7865 0 0
rwrist -15.4008 0 0
rhand -27.9194 -23.6938 0
rfingers 7.12502 0 0
rthumb -1.30806 -53.6713 0
157
root 8.37403 16.3222 -14.7923 7.11148 9.15124 0.833007
lfemur 11.0476 7.18482 -15.2038
ltibia 28.0934 0 0
lfoot 6.5653 4.45155 0
ltoes -15.4353 0 0
rfemur -34.0949 1.04987 21.0612
rtibia 35.7172 0 0
rfoot -8.51737 -0.596957 0
rtoes -15.3322 0 0
lowerback -5.50984 -2.45116 -1.70181
upperback -1.52753 -3.21657 2.92741
thorax 1.78886 -1.61653 3.72494
lowerneck -18.9953 -6.53229 -14.2739
upperneck 15.7991 -7.85536 14.0113
head 9.26274 -3.15996 6.14246
lclavicle -3.22725e-15 -2.73963e-14 0
lhumerus -41.0183 -3.48723 92.6473
lradius 20.7422 0 0
lwrist -4.81622 0 0
lhand -6.89509 -21.4622 0
lfingers 7.12502 0 0
lthumb 18.9697 7.60858 0
rclavicle -3.22725e-15 -2.73963e-14 0
rhumerus -46.8869 7.13347 -81.5935
rradius 31.2123 0 0
rwrist -15.7537 0 0
rhand -28.0206 -23.7933 0
rfingers 7.12502 0 0
rthumb -1.40584 -53.7703 0
158
root 8.35307 16.3659 -14.6651 7.20492 9.14104 0.585651
lfemur 8.80165 7.35205 -15.1143
ltibia 31.4615 0 0
lfoot 5.84445 5.10149 0
ltoes -15.3759 0 0
rfemur -33.2758 1.09558 21.4727
rtibia 34.9593 0 0
rfoot -8.94036 -0.399571 0
rtoes -15.1726 0 0
lowerback -5.42574 -2.3292 -1.50518
upperback -1.54996 -3.06484 2.99543
thorax 1.7006 -1.53893 3.69953
lowerneck -18.9218 -6.60727 -14.3356
upperneck 15.6213 -7.96165 14.1391
head 9.21541 -3.20422 6.17886
lclavicle -2.65233e-15 -2.75638e-14 0
lhumerus -41.6077 -4.55133 93.1953
lradius 21.5267 0 0
lwrist -3.63362 0 0
lhand -6.41469 -21.3292 0
lfingers 7.12502 0 0
lthumb 19.4318 7.69737 0
rclavicle -2.65233e-15 -2.75638e-14 0
rhumerus -46.678 7.59805 -81.638
rradius 31.6592 0 0
rwrist -16.1234 0 0
rhand -28.1317 -23.8936 0
rfingers 7.12502 0 0
rthumb -1.5131 -53.8699 0
